<svg xmlns="http://www.w3.org/2000/svg" width="164.915" height="164.915" viewBox="0 0 164.915 164.915">
  <g id="Grupo_265" data-name="Grupo 265" transform="translate(0 0)">
    <ellipse id="Elipse_2" data-name="Elipse 2" cx="7.17" cy="7.17" rx="7.17" ry="7.17" transform="translate(0 0)" fill="#414141"/>
    <ellipse id="Elipse_41" data-name="Elipse 41" cx="7.17" cy="7.17" rx="7.17" ry="7.17" transform="translate(0 86.043)" fill="#414141"/>
    <ellipse id="Elipse_20" data-name="Elipse 20" cx="7.17" cy="7.17" rx="7.17" ry="7.17" transform="translate(0 43.021)" fill="#414141"/>
    <ellipse id="Elipse_36" data-name="Elipse 36" cx="7.17" cy="7.17" rx="7.17" ry="7.17" transform="translate(0 129.064)" fill="#414141"/>
    <ellipse id="Elipse_18" data-name="Elipse 18" cx="7.17" cy="7.17" rx="7.17" ry="7.17" transform="translate(0 21.511)" fill="#414141"/>
    <ellipse id="Elipse_37" data-name="Elipse 37" cx="7.17" cy="7.17" rx="7.17" ry="7.17" transform="translate(0 107.553)" fill="#414141"/>
    <ellipse id="Elipse_19" data-name="Elipse 19" cx="7.17" cy="7.17" rx="7.17" ry="7.17" transform="translate(0 64.532)" fill="#414141"/>
    <ellipse id="Elipse_35" data-name="Elipse 35" cx="7.17" cy="7.17" rx="7.17" ry="7.17" transform="translate(0 150.575)" fill="#414141"/>
    <ellipse id="Elipse_7" data-name="Elipse 7" cx="7.17" cy="7.17" rx="7.17" ry="7.17" transform="translate(64.532 0)" fill="#414141"/>
    <ellipse id="Elipse_47" data-name="Elipse 47" cx="7.17" cy="7.17" rx="7.17" ry="7.17" transform="translate(64.532 86.043)" fill="#414141"/>
    <ellipse id="Elipse_25" data-name="Elipse 25" cx="7.17" cy="7.17" rx="7.17" ry="7.17" transform="translate(64.532 43.021)" fill="#414141"/>
    <ellipse id="Elipse_48" data-name="Elipse 48" cx="7.17" cy="7.17" rx="7.17" ry="7.17" transform="translate(64.532 129.064)" fill="#414141"/>
    <ellipse id="Elipse_15" data-name="Elipse 15" cx="7.17" cy="7.17" rx="7.17" ry="7.17" transform="translate(64.532 21.511)" fill="#414141"/>
    <ellipse id="Elipse_49" data-name="Elipse 49" cx="7.17" cy="7.17" rx="7.17" ry="7.17" transform="translate(64.532 107.553)" fill="#414141"/>
    <ellipse id="Elipse_26" data-name="Elipse 26" cx="7.17" cy="7.17" rx="7.17" ry="7.17" transform="translate(64.532 64.532)" fill="#414141"/>
    <ellipse id="Elipse_50" data-name="Elipse 50" cx="7.17" cy="7.17" rx="7.17" ry="7.17" transform="translate(64.532 150.575)" fill="#414141"/>
    <ellipse id="Elipse_8" data-name="Elipse 8" cx="7.17" cy="7.17" rx="7.17" ry="7.17" transform="translate(150.575 0)" fill="#414141"/>
    <ellipse id="Elipse_63" data-name="Elipse 63" cx="7.17" cy="7.17" rx="7.17" ry="7.17" transform="translate(150.575 86.043)" fill="#414141"/>
    <ellipse id="Elipse_33" data-name="Elipse 33" cx="7.17" cy="7.17" rx="7.17" ry="7.17" transform="translate(150.575 43.021)" fill="#414141"/>
    <ellipse id="Elipse_64" data-name="Elipse 64" cx="7.17" cy="7.17" rx="7.17" ry="7.17" transform="translate(150.575 129.064)" fill="#414141"/>
    <ellipse id="Elipse_11" data-name="Elipse 11" cx="7.17" cy="7.17" rx="7.17" ry="7.17" transform="translate(150.575 21.511)" fill="#414141"/>
    <ellipse id="Elipse_65" data-name="Elipse 65" cx="7.17" cy="7.17" rx="7.17" ry="7.17" transform="translate(150.575 107.553)" fill="#414141"/>
    <ellipse id="Elipse_34" data-name="Elipse 34" cx="7.17" cy="7.17" rx="7.17" ry="7.17" transform="translate(150.575 64.532)" fill="#414141"/>
    <ellipse id="Elipse_66" data-name="Elipse 66" cx="7.17" cy="7.17" rx="7.17" ry="7.17" transform="translate(150.575 150.575)" fill="#414141"/>
    <ellipse id="Elipse_3" data-name="Elipse 3" cx="7.17" cy="7.17" rx="7.17" ry="7.17" transform="translate(21.511 0)" fill="#414141"/>
    <ellipse id="Elipse_42" data-name="Elipse 42" cx="7.17" cy="7.17" rx="7.17" ry="7.17" transform="translate(21.511 86.043)" fill="#414141"/>
    <ellipse id="Elipse_21" data-name="Elipse 21" cx="7.17" cy="7.17" rx="7.17" ry="7.17" transform="translate(21.511 43.021)" fill="#414141"/>
    <ellipse id="Elipse_38" data-name="Elipse 38" cx="7.17" cy="7.17" rx="7.17" ry="7.17" transform="translate(21.511 129.064)" fill="#414141"/>
    <ellipse id="Elipse_17" data-name="Elipse 17" cx="7.17" cy="7.17" rx="7.17" ry="7.17" transform="translate(21.511 21.511)" fill="#414141"/>
    <ellipse id="Elipse_39" data-name="Elipse 39" cx="7.17" cy="7.17" rx="7.17" ry="7.17" transform="translate(21.511 107.553)" fill="#414141"/>
    <ellipse id="Elipse_22" data-name="Elipse 22" cx="7.17" cy="7.17" rx="7.17" ry="7.17" transform="translate(21.511 64.532)" fill="#414141"/>
    <ellipse id="Elipse_40" data-name="Elipse 40" cx="7.17" cy="7.17" rx="7.17" ry="7.17" transform="translate(21.511 150.575)" fill="#414141"/>
    <ellipse id="Elipse_5" data-name="Elipse 5" cx="7.17" cy="7.17" rx="7.17" ry="7.17" transform="translate(86.043 0)" fill="#414141"/>
    <ellipse id="Elipse_51" data-name="Elipse 51" cx="7.17" cy="7.17" rx="7.17" ry="7.17" transform="translate(86.043 86.043)" fill="#414141"/>
    <ellipse id="Elipse_27" data-name="Elipse 27" cx="7.17" cy="7.17" rx="7.17" ry="7.17" transform="translate(86.043 43.021)" fill="#414141"/>
    <ellipse id="Elipse_52" data-name="Elipse 52" cx="7.17" cy="7.17" rx="7.17" ry="7.17" transform="translate(86.043 129.064)" fill="#414141"/>
    <ellipse id="Elipse_12" data-name="Elipse 12" cx="7.17" cy="7.17" rx="7.17" ry="7.17" transform="translate(86.043 21.511)" fill="#414141"/>
    <ellipse id="Elipse_53" data-name="Elipse 53" cx="7.17" cy="7.17" rx="7.17" ry="7.17" transform="translate(86.043 107.553)" fill="#414141"/>
    <ellipse id="Elipse_28" data-name="Elipse 28" cx="7.17" cy="7.17" rx="7.17" ry="7.17" transform="translate(86.043 64.532)" fill="#414141"/>
    <ellipse id="Elipse_54" data-name="Elipse 54" cx="7.17" cy="7.17" rx="7.17" ry="7.17" transform="translate(86.043 150.575)" fill="#414141"/>
    <ellipse id="Elipse_4" data-name="Elipse 4" cx="7.17" cy="7.17" rx="7.17" ry="7.17" transform="translate(43.021 0)" fill="#414141"/>
    <ellipse id="Elipse_43" data-name="Elipse 43" cx="7.17" cy="7.17" rx="7.17" ry="7.17" transform="translate(43.021 86.043)" fill="#414141"/>
    <ellipse id="Elipse_23" data-name="Elipse 23" cx="7.17" cy="7.17" rx="7.17" ry="7.17" transform="translate(43.021 43.021)" fill="#414141"/>
    <ellipse id="Elipse_44" data-name="Elipse 44" cx="7.17" cy="7.17" rx="7.17" ry="7.17" transform="translate(43.021 129.064)" fill="#414141"/>
    <ellipse id="Elipse_16" data-name="Elipse 16" cx="7.17" cy="7.17" rx="7.17" ry="7.17" transform="translate(43.021 21.511)" fill="#414141"/>
    <ellipse id="Elipse_45" data-name="Elipse 45" cx="7.17" cy="7.17" rx="7.17" ry="7.17" transform="translate(43.021 107.553)" fill="#414141"/>
    <ellipse id="Elipse_24" data-name="Elipse 24" cx="7.17" cy="7.17" rx="7.17" ry="7.17" transform="translate(43.021 64.532)" fill="#414141"/>
    <ellipse id="Elipse_46" data-name="Elipse 46" cx="7.17" cy="7.17" rx="7.17" ry="7.17" transform="translate(43.021 150.575)" fill="#414141"/>
    <ellipse id="Elipse_10" data-name="Elipse 10" cx="7.17" cy="7.17" rx="7.17" ry="7.17" transform="translate(129.064 0)" fill="#414141"/>
    <ellipse id="Elipse_59" data-name="Elipse 59" cx="7.17" cy="7.17" rx="7.17" ry="7.17" transform="translate(129.064 86.043)" fill="#414141"/>
    <ellipse id="Elipse_31" data-name="Elipse 31" cx="7.17" cy="7.17" rx="7.17" ry="7.17" transform="translate(129.064 43.021)" fill="#414141"/>
    <ellipse id="Elipse_60" data-name="Elipse 60" cx="7.17" cy="7.17" rx="7.17" ry="7.17" transform="translate(129.064 129.064)" fill="#414141"/>
    <ellipse id="Elipse_13" data-name="Elipse 13" cx="7.17" cy="7.17" rx="7.17" ry="7.17" transform="translate(129.064 21.511)" fill="#414141"/>
    <ellipse id="Elipse_61" data-name="Elipse 61" cx="7.17" cy="7.17" rx="7.17" ry="7.17" transform="translate(129.064 107.553)" fill="#414141"/>
    <ellipse id="Elipse_32" data-name="Elipse 32" cx="7.17" cy="7.17" rx="7.17" ry="7.17" transform="translate(129.064 64.532)" fill="#414141"/>
    <ellipse id="Elipse_62" data-name="Elipse 62" cx="7.17" cy="7.17" rx="7.17" ry="7.17" transform="translate(129.064 150.575)" fill="#414141"/>
    <ellipse id="Elipse_6" data-name="Elipse 6" cx="7.17" cy="7.17" rx="7.17" ry="7.17" transform="translate(107.554 0)" fill="#414141"/>
    <ellipse id="Elipse_55" data-name="Elipse 55" cx="7.17" cy="7.17" rx="7.17" ry="7.17" transform="translate(107.554 86.043)" fill="#414141"/>
    <ellipse id="Elipse_29" data-name="Elipse 29" cx="7.17" cy="7.17" rx="7.17" ry="7.17" transform="translate(107.554 43.021)" fill="#414141"/>
    <ellipse id="Elipse_56" data-name="Elipse 56" cx="7.17" cy="7.17" rx="7.17" ry="7.17" transform="translate(107.554 129.064)" fill="#414141"/>
    <ellipse id="Elipse_14" data-name="Elipse 14" cx="7.17" cy="7.17" rx="7.17" ry="7.17" transform="translate(107.554 21.511)" fill="#414141"/>
    <ellipse id="Elipse_57" data-name="Elipse 57" cx="7.17" cy="7.17" rx="7.17" ry="7.17" transform="translate(107.554 107.553)" fill="#414141"/>
    <ellipse id="Elipse_30" data-name="Elipse 30" cx="7.17" cy="7.17" rx="7.17" ry="7.17" transform="translate(107.554 64.532)" fill="#414141"/>
    <ellipse id="Elipse_58" data-name="Elipse 58" cx="7.17" cy="7.17" rx="7.17" ry="7.17" transform="translate(107.554 150.575)" fill="#414141"/>
  </g>
</svg>
