<svg id="Group_263" data-name="Group 263" xmlns="http://www.w3.org/2000/svg" xmlns:xlink="http://www.w3.org/1999/xlink" width="295.954" height="44.117" viewBox="0 0 295.954 44.117">
  <defs>
    <linearGradient id="linear-gradient" x1="0.5" x2="0.5" y2="1" gradientUnits="objectBoundingBox">
      <stop offset="0" stop-color="#d90012"/>
      <stop offset="1" stop-color="#830014"/>
    </linearGradient>
    <linearGradient id="linear-gradient-8" x1="0.5" y1="0" x2="0.5" y2="1" xlink:href="#linear-gradient"/>
    <linearGradient id="linear-gradient-13" x1="0.5" y1="0" x2="0.5" y2="1" xlink:href="#linear-gradient"/>
    <linearGradient id="linear-gradient-18" y1="0.5" x2="1" y2="0.5" gradientUnits="objectBoundingBox">
      <stop offset="0" stop-color="#241c50"/>
      <stop offset="1" stop-color="#171632"/>
    </linearGradient>
  </defs>
  <g id="Group_238" data-name="Group 238" transform="translate(58.876 5.411)">
    <path id="Path_205" data-name="Path 205" d="M-626.61,89.272v17.765h-4.061V89.272h-6.177V85.634h16.635v3.638Z" transform="translate(636.848 -85.446)" fill="#fff"/>
    <path id="Path_206" data-name="Path 206" d="M-591.118,89.052v5.52h10.034v2.995h-10.034v6.052h10.679v3.417H-595.18v-21.4h14.645v3.418Z" transform="translate(613.445 -85.446)" fill="#fff"/>
    <path id="Path_207" data-name="Path 207" d="M-542.458,99.161h4.076V99.9q0,4.47-1.629,5.778t-7.213,1.31q-6.335,0-7.792-2.069t-1.457-11.071q0-5.3,1.975-6.969t8.263-1.671q4.578,0,6.115,1.37t1.537,5.45l.016.487h-4.077v-.548q0-2.1-.793-2.69t-3.614-.588q-3.779,0-4.54.925t-.76,5.488q0,6.146.681,7.275t4.416,1.129q3.024,0,3.926-.626t.9-2.761Z" transform="translate(591.707 -85.205)" fill="#fff"/>
    <path id="Path_208" data-name="Path 208" d="M-489.5,85.634v21.4h-6.884L-502.5,95.293q-.456-.878-1.427-3.072l-.691-1.539-.672-1.536h-.158l.064,1.411.046,1.394.031,2.809v12.276h-4.061v-21.4h6.883l5.566,10.851q.74,1.443,1.709,3.5l.816,1.74.816,1.756h.141l-.047-1.379-.047-1.381-.032-2.758V85.634Z" transform="translate(565.25 -85.446)" fill="#fff"/>
    <path id="Path_209" data-name="Path 209" d="M-447.879,85.2q5.832,0,7.51,1.936t1.678,8.664q0,7.353-1.686,9.267t-8.16,1.913q-5.837,0-7.544-1.889t-1.71-8.317q0-7.655,1.678-9.612T-447.879,85.2Zm-.313,3.481q-4.093,0-4.783,1.051t-.693,7.276q0,4.61.809,5.55t4.76.941q3.781,0,4.533-1.057t.751-6.421q0-5.378-.715-6.358T-448.192,88.686Z" transform="translate(536.281 -85.205)" fill="#fff"/>
    <path id="Path_210" data-name="Path 210" d="M-382.937,85.634v21.4H-387V95.371q0-1.395.078-3.166l.081-1.6.076-1.582h-.127l-.485,1.487-.47,1.492q-.66,2.005-1.021,2.963l-4.7,12.072h-3.7l-4.752-11.979q-.393-.986-1.037-2.963l-.486-1.49-.485-1.473h-.126l.08,1.551.079,1.568q.094,1.819.092,3.12v11.666h-4.059v-21.4h6.617l3.825,9.911q.393,1.034,1.036,2.963l.469,1.49.487,1.474h.139l.456-1.474.47-1.474q.582-1.865,1.005-2.948l3.763-9.941Z" transform="translate(508.295 -85.446)" fill="#fff"/>
    <path id="Path_211" data-name="Path 211" d="M-331.789,102.928h-9.234l-1.333,4.108h-4.3l7.121-21.4h6.1l7.23,21.4h-4.218Zm-.937-2.995-3.7-11.147-3.637,11.147Z" transform="translate(473.862 -85.446)" fill="#fff"/>
    <path id="Path_212" data-name="Path 212" d="M-283.594,99.161h4.078V99.9q0,4.47-1.632,5.778t-7.211,1.31q-6.339,0-7.794-2.069t-1.459-11.071q0-5.3,1.976-6.969t8.263-1.671q4.576,0,6.114,1.37t1.538,5.45l.014.487h-4.076v-.548q0-2.1-.791-2.69t-3.616-.588q-3.776,0-4.538.925t-.76,5.488q0,6.146.682,7.275t4.413,1.129q3.026,0,3.927-.626t.9-2.761Z" transform="translate(446.318 -85.205)" fill="#fff"/>
    <path id="Path_213" data-name="Path 213" d="M-232.346,85.634v21.4h-4.061v-9.25h-10.039v9.25h-4.06v-21.4h4.06v8.733h10.039V85.634Z" transform="translate(419.861 -85.446)" fill="#fff"/>
    <path id="Path_214" data-name="Path 214" d="M-196.437,85.634v21.4h-4.06v-21.4Z" transform="translate(391.774 -85.446)" fill="#fff"/>
    <path id="Path_215" data-name="Path 215" d="M-162.715,85.634v21.4H-169.6l-6.116-11.744q-.452-.878-1.426-3.072l-.691-1.539-.674-1.536h-.156l.063,1.411.047,1.394.031,2.809v12.276h-4.062v-21.4h6.884l5.567,10.851q.736,1.443,1.708,3.5l.818,1.74.815,1.756h.14l-.048-1.379-.048-1.381-.03-2.758V85.634Z" transform="translate(381.712 -85.446)" fill="#fff"/>
    <path id="Path_216" data-name="Path 216" d="M-125.578,89.052v5.52h10.035v2.995h-10.035v6.052H-114.9v3.417h-14.74v-21.4H-115v3.418Z" transform="translate(351.977 -85.446)" fill="#fff"/>
  </g>
  <g id="Group_239" data-name="Group 239" transform="translate(65.008 33.435)">
    <path id="Path_217" data-name="Path 217" d="M-621.167,149.389v9.068h-1.72v-9.068Z" transform="translate(622.887 -149.31)" fill="url(#linear-gradient)"/>
    <path id="Path_218" data-name="Path 218" d="M-607.468,149.389v9.068h-2.916l-2.59-4.976c-.131-.249-.331-.682-.606-1.3l-.292-.651-.285-.651h-.068l.027.6.021.591.013,1.191v5.2h-1.721v-9.068h2.917l2.359,4.6c.208.409.449.9.725,1.481l.344.738.348.744h.059l-.02-.585-.021-.585-.013-1.168v-5.223Z" transform="translate(618.954 -149.31)" fill="url(#linear-gradient)"/>
    <path id="Path_219" data-name="Path 219" d="M-593.636,158.457v-9.068h4.457a3.508,3.508,0,0,1,2.661.83,4.323,4.323,0,0,1,.759,2.91q0,3.4-.608,4.362c-.41.643-1.328.966-2.76.966Zm1.722-1.447h2.45q1.235,0,1.6-.569a5.519,5.519,0,0,0,.361-2.508,6.144,6.144,0,0,0-.324-2.55c-.218-.363-.728-.546-1.527-.546h-2.558Z" transform="translate(606.458 -149.31)" fill="url(#linear-gradient)"/>
    <path id="Path_220" data-name="Path 220" d="M-567.547,149.389h1.721v6.032a3.22,3.22,0,0,1-.729,2.5,4.933,4.933,0,0,1-2.973.613,5.56,5.56,0,0,1-3.107-.578,3.038,3.038,0,0,1-.737-2.439v-6.131h1.72v6.131q0,1.005.358,1.273a3.3,3.3,0,0,0,1.687.27,3.3,3.3,0,0,0,1.712-.271q.348-.272.349-1.336Z" transform="translate(595.077 -149.31)" fill="url(#linear-gradient)"/>
    <path id="Path_221" data-name="Path 221" d="M-546.872,151.932h-1.681c-.008-.083-.014-.147-.014-.186-.04-.509-.152-.828-.337-.96a2.726,2.726,0,0,0-1.316-.2,3.6,3.6,0,0,0-1.6.226,1.023,1.023,0,0,0-.377.949c0,.573.1.915.306,1.029a7,7,0,0,0,2.021.267,5.289,5.289,0,0,1,2.621.578,2.391,2.391,0,0,1,.595,1.933q0,1.809-.7,2.335a5.777,5.777,0,0,1-3.075.528,5.223,5.223,0,0,1-2.84-.518,2.5,2.5,0,0,1-.7-2.1l-.009-.331h1.675l0,.192c0,.634.111,1.02.334,1.164a4.429,4.429,0,0,0,1.813.213,2.8,2.8,0,0,0,1.476-.246q.317-.247.318-1.135a1.173,1.173,0,0,0-.241-.875,1.879,1.879,0,0,0-1.046-.263l-.951-.058a5.617,5.617,0,0,1-2.748-.6,2.54,2.54,0,0,1-.6-2.026,2.5,2.5,0,0,1,.719-2.116,5.325,5.325,0,0,1,2.881-.528,5.35,5.35,0,0,1,2.755.483,2.149,2.149,0,0,1,.713,1.895Z" transform="translate(584.182 -149.209)" fill="url(#linear-gradient)"/>
    <path id="Path_222" data-name="Path 222" d="M-532.445,150.931v7.527h-1.722v-7.527h-2.615v-1.542h7.047v1.542Z" transform="translate(574.526 -149.31)" fill="url(#linear-gradient)"/>
    <path id="Path_223" data-name="Path 223" d="M-519.312,158.457v-9.068h4.471a3.447,3.447,0,0,1,2.3.579,2.776,2.776,0,0,1,.632,2.093,3.87,3.87,0,0,1-.316,1.881,1.874,1.874,0,0,1-1.294.7v.059q1.509.1,1.51,1.761v2h-1.722V156.8a1.23,1.23,0,0,0-1.38-1.4h-2.479v3.056Zm1.721-4.5h2.472a1.6,1.6,0,0,0,1.17-.315,1.958,1.958,0,0,0,.29-1.266,2.083,2.083,0,0,0-.25-1.252,1.492,1.492,0,0,0-1.092-.283h-2.59Z" transform="translate(564.715 -149.31)" fill="url(#linear-gradient)"/>
    <path id="Path_224" data-name="Path 224" d="M-498.177,149.389v9.068h-1.72v-9.068Z" transform="translate(553.811 -149.31)" fill="url(#linear-gradient-8)"/>
    <path id="Path_225" data-name="Path 225" d="M-488.444,156.717h-3.912l-.566,1.74h-1.819l3.017-9.068h2.585l3.061,9.068h-1.785Zm-.4-1.269-1.57-4.722-1.541,4.722Z" transform="translate(550.915 -149.31)" fill="url(#linear-gradient)"/>
    <path id="Path_226" data-name="Path 226" d="M-472.062,149.389v7.527h4.252v1.541h-5.974v-9.068Z" transform="translate(539.144 -149.31)" fill="url(#linear-gradient)"/>
    <path id="Path_227" data-name="Path 227" d="M-457.537,166.35v1.579q0,1.591-1.369,1.589c-.049,0-.139,0-.277-.014v-.711c.486,0,.731-.2.731-.611l-.007-.2h-.6V166.35Z" transform="translate(530.944 -158.836)" fill="url(#linear-gradient)"/>
    <path id="Path_228" data-name="Path 228" d="M-438.973,151.932h-1.679c-.007-.083-.014-.147-.014-.186-.04-.509-.154-.828-.34-.96a2.721,2.721,0,0,0-1.316-.2,3.617,3.617,0,0,0-1.6.226,1.028,1.028,0,0,0-.373.949c0,.573.1.915.3,1.029a6.974,6.974,0,0,0,2.021.267,5.294,5.294,0,0,1,2.62.578,2.4,2.4,0,0,1,.593,1.933q0,1.809-.7,2.335a5.782,5.782,0,0,1-3.077.528,5.221,5.221,0,0,1-2.839-.518,2.5,2.5,0,0,1-.7-2.1l0-.331h1.674l0,.192c0,.634.111,1.02.331,1.164a4.453,4.453,0,0,0,1.815.213,2.788,2.788,0,0,0,1.474-.246q.32-.247.32-1.135a1.167,1.167,0,0,0-.244-.875,1.862,1.862,0,0,0-1.045-.263l-.952-.058a5.64,5.64,0,0,1-2.751-.6,2.547,2.547,0,0,1-.6-2.026,2.5,2.5,0,0,1,.72-2.116,5.33,5.33,0,0,1,2.882-.528,5.361,5.361,0,0,1,2.756.483,2.147,2.147,0,0,1,.71,1.895Z" transform="translate(523.58 -149.209)" fill="url(#linear-gradient)"/>
    <path id="Path_229" data-name="Path 229" d="M-425.97,166.35v1.633h-1.521V166.35Z" transform="translate(513.145 -158.836)" fill="url(#linear-gradient-13)"/>
    <path id="Path_230" data-name="Path 230" d="M-416.8,156.717h-3.915l-.564,1.74h-1.817l3.015-9.068h2.585l3.061,9.068h-1.786Zm-.4-1.269-1.567-4.722-1.54,4.722Z" transform="translate(510.674 -149.31)" fill="url(#linear-gradient)"/>
    <path id="Path_231" data-name="Path 231" d="M-400.871,166.35v1.633h-1.523V166.35Z" transform="translate(499.049 -158.836)" fill="url(#linear-gradient-13)"/>
  </g>
  <path id="Path_232" data-name="Path 232" d="M-730.6,76.9a4.094,4.094,0,0,0-4.147-4.038H-771.2V80.6a4.094,4.094,0,0,0,4.148,4.038h6.174v8.392a4.41,4.41,0,0,0-.024.443v17.775a4.1,4.1,0,0,0,4.042,4.145h9.15l-.016-30.755H-730.6V84.3h0Z" transform="translate(771.199 -72.862)" fill="url(#linear-gradient)"/>
  <g id="Group_240" data-name="Group 240" transform="translate(25.586 13.991)">
    <path id="Path_233" data-name="Path 233" d="M-683.345,104.852v28.537H-691.7l-.01-19.265-3.326,19.265h-5.924l-3.506-18.824-.011,18.824h-8.353V104.852h11.93c.367,1.716,2.727,9.677,2.727,9.677l2.831-9.677Z" transform="translate(712.831 -104.852)" fill="url(#linear-gradient)"/>
  </g>
  <g id="Group_241" data-name="Group 241" transform="translate(30.914 1.222)">
    <path id="Path_234" data-name="Path 234" d="M-689.385,87.536l-4.807-11.886-6.484,16.032h4.54l4.806,11.886,6.485-16.033Zm-6.161,3.27h-3.83l5.184-12.817,4.216,10.424h3.83l-5.184,12.818Z" transform="translate(700.676 -75.65)" fill="#fff"/>
    <path id="Path_235" data-name="Path 235" d="M-697.709,93.8h3.83l4.215,10.425,5.184-12.818h-3.83l-4.216-10.424Z" transform="translate(699.01 -78.646)" fill="url(#linear-gradient-18)"/>
  </g>
  <rect id="Rectangle_2969" data-name="Rectangle 2969" width="8.318" height="5.847" transform="translate(46.754 5.604)" fill="url(#linear-gradient)"/>
</svg>
